<mxfile host="Electron" modified="2024-12-11T02:11:12.948Z" agent="Mozilla/5.0 (Windows NT 10.0; Win64; x64) AppleWebKit/537.36 (KHTML, like Gecko) draw.io/24.1.0 Chrome/120.0.6099.109 Electron/28.1.0 Safari/537.36" etag="zyXGJAPSdpd2dxVyIQmc" version="24.1.0" type="device" pages="4">
  <diagram name="doris-1" id="I9UAZyholPvYavsODyDd">
    <mxGraphModel dx="2261" dy="836" grid="1" gridSize="10" guides="1" tooltips="1" connect="1" arrows="1" fold="1" page="1" pageScale="1" pageWidth="827" pageHeight="1169" math="0" shadow="0">
      <root>
        <mxCell id="0" />
        <mxCell id="1" parent="0" />
        <mxCell id="Kq8y0riaq3eOxKgUJ4Hc-30" value="" style="rounded=1;whiteSpace=wrap;html=1;fillColor=none;dashed=1;strokeWidth=2;" parent="1" vertex="1">
          <mxGeometry x="920" y="187.5" width="200" height="225" as="geometry" />
        </mxCell>
        <mxCell id="Kq8y0riaq3eOxKgUJ4Hc-13" value="" style="rounded=1;whiteSpace=wrap;html=1;fillColor=none;dashed=1;strokeWidth=2;" parent="1" vertex="1">
          <mxGeometry x="-70" y="190" width="950" height="230" as="geometry" />
        </mxCell>
        <mxCell id="Kq8y0riaq3eOxKgUJ4Hc-14" value="" style="edgeStyle=orthogonalEdgeStyle;rounded=0;orthogonalLoop=1;jettySize=auto;html=1;" parent="1" source="Kq8y0riaq3eOxKgUJ4Hc-15" target="Kq8y0riaq3eOxKgUJ4Hc-17" edge="1">
          <mxGeometry relative="1" as="geometry" />
        </mxCell>
        <mxCell id="Kq8y0riaq3eOxKgUJ4Hc-15" value="逻辑计划" style="rounded=1;whiteSpace=wrap;html=1;fillColor=#f8cecc;fontFamily=阿里巴巴普惠体;fontSize=24;strokeColor=#b85450;" parent="1" vertex="1">
          <mxGeometry x="242" y="270" width="130" height="60" as="geometry" />
        </mxCell>
        <mxCell id="Kq8y0riaq3eOxKgUJ4Hc-16" value="" style="edgeStyle=orthogonalEdgeStyle;rounded=0;orthogonalLoop=1;jettySize=auto;html=1;" parent="1" source="Kq8y0riaq3eOxKgUJ4Hc-17" target="Kq8y0riaq3eOxKgUJ4Hc-18" edge="1">
          <mxGeometry relative="1" as="geometry" />
        </mxCell>
        <mxCell id="Kq8y0riaq3eOxKgUJ4Hc-17" value="物理计划" style="rounded=1;whiteSpace=wrap;html=1;fillColor=#dae8fc;fontFamily=阿里巴巴普惠体;fontSize=24;strokeColor=#6c8ebf;" parent="1" vertex="1">
          <mxGeometry x="470" y="270" width="120" height="60" as="geometry" />
        </mxCell>
        <mxCell id="Kq8y0riaq3eOxKgUJ4Hc-29" value="" style="edgeStyle=orthogonalEdgeStyle;rounded=0;orthogonalLoop=1;jettySize=auto;html=1;" parent="1" source="Kq8y0riaq3eOxKgUJ4Hc-18" target="Kq8y0riaq3eOxKgUJ4Hc-28" edge="1">
          <mxGeometry relative="1" as="geometry" />
        </mxCell>
        <mxCell id="Kq8y0riaq3eOxKgUJ4Hc-18" value="计划分片" style="rounded=1;whiteSpace=wrap;html=1;fillColor=#d5e8d4;fontFamily=阿里巴巴普惠体;fontSize=24;strokeColor=#82b366;" parent="1" vertex="1">
          <mxGeometry x="710" y="270" width="120" height="60" as="geometry" />
        </mxCell>
        <mxCell id="Kq8y0riaq3eOxKgUJ4Hc-19" value="&lt;font style=&quot;font-size: 24px;&quot; face=&quot;阿里巴巴普惠体&quot;&gt;Nereids 查询优化器&lt;/font&gt;" style="text;html=1;align=center;verticalAlign=middle;whiteSpace=wrap;rounded=0;" parent="1" vertex="1">
          <mxGeometry x="329" y="200" width="231" height="30" as="geometry" />
        </mxCell>
        <mxCell id="Kq8y0riaq3eOxKgUJ4Hc-20" value="" style="edgeStyle=orthogonalEdgeStyle;rounded=0;orthogonalLoop=1;jettySize=auto;html=1;" parent="1" source="Kq8y0riaq3eOxKgUJ4Hc-21" target="Kq8y0riaq3eOxKgUJ4Hc-15" edge="1">
          <mxGeometry relative="1" as="geometry" />
        </mxCell>
        <mxCell id="Kq8y0riaq3eOxKgUJ4Hc-21" value="&lt;font face=&quot;阿里巴巴普惠体&quot; style=&quot;font-size: 24px;&quot;&gt;select udf from tbl;&lt;/font&gt;" style="rounded=1;whiteSpace=wrap;html=1;fillColor=none;align=left;" parent="1" vertex="1">
          <mxGeometry x="-60" y="272.5" width="220" height="55" as="geometry" />
        </mxCell>
        <mxCell id="Kq8y0riaq3eOxKgUJ4Hc-22" value="&lt;font face=&quot;阿里巴巴普惠体&quot; style=&quot;font-size: 16px;&quot;&gt;优化用户 udf 函数表达式的执行逻辑&lt;/font&gt;" style="text;html=1;align=left;verticalAlign=middle;whiteSpace=wrap;rounded=0;" parent="1" vertex="1">
          <mxGeometry x="350" y="340" width="156" height="30" as="geometry" />
        </mxCell>
        <mxCell id="Kq8y0riaq3eOxKgUJ4Hc-23" value="&lt;font style=&quot;font-size: 18px;&quot; face=&quot;阿里巴巴普惠体&quot;&gt;查询计划的生成过程&lt;/font&gt;" style="text;html=1;align=center;verticalAlign=middle;whiteSpace=wrap;rounded=0;" parent="1" vertex="1">
          <mxGeometry x="414" y="440" width="280" height="30" as="geometry" />
        </mxCell>
        <mxCell id="Kq8y0riaq3eOxKgUJ4Hc-24" value="&lt;font style=&quot;font-size: 18px;&quot;&gt;parser&lt;/font&gt;" style="text;html=1;align=center;verticalAlign=middle;whiteSpace=wrap;rounded=0;" parent="1" vertex="1">
          <mxGeometry x="170" y="270" width="60" height="30" as="geometry" />
        </mxCell>
        <mxCell id="Kq8y0riaq3eOxKgUJ4Hc-27" value="&lt;font color=&quot;#ff0000&quot; style=&quot;font-size: 16px;&quot;&gt;&lt;font face=&quot;阿里巴巴普惠体&quot; style=&quot;font-size: 16px;&quot;&gt;Nereids JavaUdf&amp;nbsp;&lt;/font&gt;&lt;span style=&quot;background-color: initial; font-family: 阿里巴巴普惠体;&quot;&gt;---&amp;gt; Catalog Function&lt;/span&gt;&lt;/font&gt;" style="text;html=1;align=left;verticalAlign=middle;whiteSpace=wrap;rounded=0;" parent="1" vertex="1">
          <mxGeometry x="530" y="330" width="340" height="50" as="geometry" />
        </mxCell>
        <mxCell id="Kq8y0riaq3eOxKgUJ4Hc-28" value="执行引擎" style="rounded=1;whiteSpace=wrap;html=1;fillColor=none;fontFamily=阿里巴巴普惠体;fontSize=24;" parent="1" vertex="1">
          <mxGeometry x="965" y="270" width="110" height="60" as="geometry" />
        </mxCell>
        <mxCell id="Kq8y0riaq3eOxKgUJ4Hc-31" value="&lt;font style=&quot;font-size: 24px;&quot; face=&quot;阿里巴巴普惠体&quot;&gt;BE&lt;/font&gt;" style="text;html=1;align=center;verticalAlign=middle;whiteSpace=wrap;rounded=0;" parent="1" vertex="1">
          <mxGeometry x="935" y="210" width="170" height="30" as="geometry" />
        </mxCell>
        <mxCell id="CryGEe6n-N_FEWvVCqmS-1" value="&lt;font face=&quot;阿里巴巴普惠体&quot; style=&quot;font-size: 18px;&quot;&gt;optimizer&lt;/font&gt;" style="text;html=1;align=left;verticalAlign=middle;whiteSpace=wrap;rounded=0;" vertex="1" parent="1">
          <mxGeometry x="378" y="269" width="96" height="30" as="geometry" />
        </mxCell>
      </root>
    </mxGraphModel>
  </diagram>
  <diagram id="z9z1p3-_g5BCZ5W2uru1" name="doris-2">
    <mxGraphModel dx="2261" dy="836" grid="1" gridSize="10" guides="1" tooltips="1" connect="1" arrows="1" fold="1" page="1" pageScale="1" pageWidth="827" pageHeight="1169" math="0" shadow="0">
      <root>
        <mxCell id="0" />
        <mxCell id="1" parent="0" />
        <mxCell id="kPFcNVbbVl1tSAIDetyN-2" value="" style="rounded=1;whiteSpace=wrap;html=1;fillColor=none;dashed=1;strokeWidth=2;strokeColor=#FF0000;" parent="1" vertex="1">
          <mxGeometry x="135.5" y="200" width="764.5" height="340" as="geometry" />
        </mxCell>
        <mxCell id="kPFcNVbbVl1tSAIDetyN-3" value="" style="edgeStyle=orthogonalEdgeStyle;rounded=0;orthogonalLoop=1;jettySize=auto;html=1;" parent="1" source="kPFcNVbbVl1tSAIDetyN-4" target="kPFcNVbbVl1tSAIDetyN-6" edge="1">
          <mxGeometry relative="1" as="geometry" />
        </mxCell>
        <mxCell id="kPFcNVbbVl1tSAIDetyN-4" value="数据类型转换" style="rounded=1;whiteSpace=wrap;html=1;fillColor=none;fontFamily=阿里巴巴普惠体;fontSize=24;" parent="1" vertex="1">
          <mxGeometry x="180" y="270" width="160" height="60" as="geometry" />
        </mxCell>
        <mxCell id="kPFcNVbbVl1tSAIDetyN-5" value="" style="edgeStyle=orthogonalEdgeStyle;rounded=0;orthogonalLoop=1;jettySize=auto;html=1;" parent="1" source="kPFcNVbbVl1tSAIDetyN-6" target="kPFcNVbbVl1tSAIDetyN-8" edge="1">
          <mxGeometry relative="1" as="geometry" />
        </mxCell>
        <mxCell id="kPFcNVbbVl1tSAIDetyN-22" value="" style="edgeStyle=orthogonalEdgeStyle;rounded=0;orthogonalLoop=1;jettySize=auto;html=1;" parent="1" edge="1">
          <mxGeometry relative="1" as="geometry">
            <mxPoint x="444" y="330" as="sourcePoint" />
            <mxPoint x="444" y="430" as="targetPoint" />
          </mxGeometry>
        </mxCell>
        <mxCell id="kPFcNVbbVl1tSAIDetyN-6" value="执行 UDF 计算" style="rounded=1;whiteSpace=wrap;html=1;fillColor=none;fontFamily=阿里巴巴普惠体;fontSize=24;" parent="1" vertex="1">
          <mxGeometry x="390" y="270" width="180" height="60" as="geometry" />
        </mxCell>
        <mxCell id="kPFcNVbbVl1tSAIDetyN-7" value="" style="edgeStyle=orthogonalEdgeStyle;rounded=0;orthogonalLoop=1;jettySize=auto;html=1;entryX=0.5;entryY=1;entryDx=0;entryDy=0;" parent="1" target="kPFcNVbbVl1tSAIDetyN-11" edge="1">
          <mxGeometry relative="1" as="geometry">
            <mxPoint x="700" y="330" as="sourcePoint" />
            <mxPoint x="25" y="329.75" as="targetPoint" />
            <Array as="points">
              <mxPoint x="700" y="520" />
              <mxPoint x="25" y="520" />
            </Array>
          </mxGeometry>
        </mxCell>
        <mxCell id="kPFcNVbbVl1tSAIDetyN-8" value="回填计算结果" style="rounded=1;whiteSpace=wrap;html=1;fillColor=none;fontFamily=阿里巴巴普惠体;fontSize=24;" parent="1" vertex="1">
          <mxGeometry x="610" y="270" width="160" height="60" as="geometry" />
        </mxCell>
        <mxCell id="kPFcNVbbVl1tSAIDetyN-9" value="&lt;font face=&quot;阿里巴巴普惠体&quot;&gt;&lt;span style=&quot;font-size: 24px;&quot;&gt;JniConnector&lt;/span&gt;&lt;/font&gt;" style="text;html=1;align=center;verticalAlign=middle;whiteSpace=wrap;rounded=0;" parent="1" vertex="1">
          <mxGeometry x="400" y="210" width="231" height="30" as="geometry" />
        </mxCell>
        <mxCell id="kPFcNVbbVl1tSAIDetyN-10" value="" style="edgeStyle=orthogonalEdgeStyle;rounded=0;orthogonalLoop=1;jettySize=auto;html=1;" parent="1" source="kPFcNVbbVl1tSAIDetyN-11" target="kPFcNVbbVl1tSAIDetyN-4" edge="1">
          <mxGeometry relative="1" as="geometry" />
        </mxCell>
        <mxCell id="kPFcNVbbVl1tSAIDetyN-11" value="&lt;font face=&quot;阿里巴巴普惠体&quot; style=&quot;font-size: 24px;&quot;&gt;初始数据块&lt;/font&gt;" style="rounded=1;whiteSpace=wrap;html=1;fillColor=none;align=left;" parent="1" vertex="1">
          <mxGeometry x="-40" y="266.25" width="130" height="67.5" as="geometry" />
        </mxCell>
        <mxCell id="kPFcNVbbVl1tSAIDetyN-13" value="&lt;font face=&quot;阿里巴巴普惠体&quot;&gt;&lt;span style=&quot;font-size: 18px;&quot;&gt;Java UDF 的计算过程&lt;/span&gt;&lt;/font&gt;" style="text;html=1;align=center;verticalAlign=middle;whiteSpace=wrap;rounded=0;" parent="1" vertex="1">
          <mxGeometry x="330" y="555" width="280" height="30" as="geometry" />
        </mxCell>
        <mxCell id="kPFcNVbbVl1tSAIDetyN-17" value="&lt;font style=&quot;font-size: 24px;&quot; face=&quot;阿里巴巴普惠体&quot;&gt;JVM&lt;/font&gt;" style="text;html=1;align=center;verticalAlign=middle;whiteSpace=wrap;rounded=1;fillColor=#60a917;strokeColor=#2D7600;fontColor=#ffffff;" parent="1" vertex="1">
          <mxGeometry x="730" y="480" width="140" height="50" as="geometry" />
        </mxCell>
        <mxCell id="kPFcNVbbVl1tSAIDetyN-21" value="UdfExector 执行类中的 evaluate 方法" style="rounded=1;whiteSpace=wrap;html=1;fillColor=#ffcd28;fontFamily=阿里巴巴普惠体;fontSize=24;align=left;strokeColor=#d79b00;gradientColor=#ffa500;" parent="1" vertex="1">
          <mxGeometry x="270" y="430" width="420" height="60" as="geometry" />
        </mxCell>
        <mxCell id="kPFcNVbbVl1tSAIDetyN-23" value="" style="endArrow=classic;html=1;rounded=0;exitX=0.595;exitY=-0.067;exitDx=0;exitDy=0;exitPerimeter=0;" parent="1" edge="1">
          <mxGeometry width="50" height="50" relative="1" as="geometry">
            <mxPoint x="521.0000000000001" y="428.49" as="sourcePoint" />
            <mxPoint x="521.1" y="332.51" as="targetPoint" />
          </mxGeometry>
        </mxCell>
        <mxCell id="kPFcNVbbVl1tSAIDetyN-24" value="&lt;font style=&quot;font-size: 20px;&quot;&gt;调用&lt;/font&gt;" style="text;html=1;align=center;verticalAlign=middle;whiteSpace=wrap;rounded=0;" parent="1" vertex="1">
          <mxGeometry x="390" y="365.5" width="60" height="30" as="geometry" />
        </mxCell>
        <mxCell id="kPFcNVbbVl1tSAIDetyN-26" value="&lt;font style=&quot;font-size: 20px;&quot;&gt;返回结果地址&lt;/font&gt;" style="text;html=1;align=center;verticalAlign=middle;whiteSpace=wrap;rounded=0;" parent="1" vertex="1">
          <mxGeometry x="464" y="365.5" width="60" height="30" as="geometry" />
        </mxCell>
        <mxCell id="kPFcNVbbVl1tSAIDetyN-28" value="1" style="ellipse;whiteSpace=wrap;html=1;aspect=fixed;fillColor=none;" parent="1" vertex="1">
          <mxGeometry x="150" y="270" width="25.5" height="25.5" as="geometry" />
        </mxCell>
        <mxCell id="kPFcNVbbVl1tSAIDetyN-29" value="2" style="ellipse;whiteSpace=wrap;html=1;aspect=fixed;fillColor=none;" parent="1" vertex="1">
          <mxGeometry x="350" y="266.25" width="25.5" height="25.5" as="geometry" />
        </mxCell>
        <mxCell id="kPFcNVbbVl1tSAIDetyN-30" value="3" style="ellipse;whiteSpace=wrap;html=1;aspect=fixed;fillColor=none;" parent="1" vertex="1">
          <mxGeometry x="408" y="340" width="25.5" height="25.5" as="geometry" />
        </mxCell>
        <mxCell id="kPFcNVbbVl1tSAIDetyN-31" value="4" style="ellipse;whiteSpace=wrap;html=1;aspect=fixed;fillColor=none;" parent="1" vertex="1">
          <mxGeometry x="530" y="340" width="25.5" height="25.5" as="geometry" />
        </mxCell>
        <mxCell id="kPFcNVbbVl1tSAIDetyN-32" value="5" style="ellipse;whiteSpace=wrap;html=1;aspect=fixed;fillColor=none;" parent="1" vertex="1">
          <mxGeometry x="574" y="304.5" width="25.5" height="25.5" as="geometry" />
        </mxCell>
      </root>
    </mxGraphModel>
  </diagram>
  <diagram id="GrOMDFhv2JeXY3KH7n9Z" name="sr-select-1">
    <mxGraphModel dx="2261" dy="836" grid="1" gridSize="10" guides="1" tooltips="1" connect="1" arrows="1" fold="1" page="1" pageScale="1" pageWidth="827" pageHeight="1169" math="0" shadow="0">
      <root>
        <mxCell id="0" />
        <mxCell id="1" parent="0" />
        <mxCell id="UNgqLyzk2mrtrdei0tpV-2" value="" style="rounded=1;whiteSpace=wrap;html=1;fillColor=none;dashed=1;strokeWidth=2;" vertex="1" parent="1">
          <mxGeometry x="60" y="180" width="800" height="190" as="geometry" />
        </mxCell>
        <mxCell id="UNgqLyzk2mrtrdei0tpV-19" value="" style="rounded=1;whiteSpace=wrap;html=1;fillColor=none;fontFamily=阿里巴巴普惠体;fontSize=24;dashed=1;strokeColor=#FF0000;strokeWidth=2;" vertex="1" parent="1">
          <mxGeometry x="280" y="220" width="530" height="130" as="geometry" />
        </mxCell>
        <mxCell id="UNgqLyzk2mrtrdei0tpV-1" value="" style="rounded=1;whiteSpace=wrap;html=1;fillColor=none;dashed=1;strokeWidth=2;" vertex="1" parent="1">
          <mxGeometry x="910" y="180" width="200" height="190" as="geometry" />
        </mxCell>
        <mxCell id="UNgqLyzk2mrtrdei0tpV-20" value="" style="edgeStyle=orthogonalEdgeStyle;rounded=0;orthogonalLoop=1;jettySize=auto;html=1;entryX=0;entryY=0.5;entryDx=0;entryDy=0;" edge="1" parent="1" source="UNgqLyzk2mrtrdei0tpV-4" target="UNgqLyzk2mrtrdei0tpV-6">
          <mxGeometry relative="1" as="geometry" />
        </mxCell>
        <mxCell id="UNgqLyzk2mrtrdei0tpV-4" value="逻辑计划" style="rounded=1;whiteSpace=wrap;html=1;fillColor=#f8cecc;fontFamily=阿里巴巴普惠体;fontSize=24;strokeColor=#b85450;" vertex="1" parent="1">
          <mxGeometry x="304" y="275" width="110" height="50" as="geometry" />
        </mxCell>
        <mxCell id="UNgqLyzk2mrtrdei0tpV-5" value="" style="edgeStyle=orthogonalEdgeStyle;rounded=0;orthogonalLoop=1;jettySize=auto;html=1;" edge="1" parent="1" source="UNgqLyzk2mrtrdei0tpV-6" target="UNgqLyzk2mrtrdei0tpV-8">
          <mxGeometry relative="1" as="geometry" />
        </mxCell>
        <mxCell id="UNgqLyzk2mrtrdei0tpV-6" value="物理计划" style="rounded=1;whiteSpace=wrap;html=1;fillColor=#dae8fc;fontFamily=阿里巴巴普惠体;fontSize=24;strokeColor=#6c8ebf;" vertex="1" parent="1">
          <mxGeometry x="490" y="275" width="100" height="50" as="geometry" />
        </mxCell>
        <mxCell id="UNgqLyzk2mrtrdei0tpV-7" value="" style="edgeStyle=orthogonalEdgeStyle;rounded=0;orthogonalLoop=1;jettySize=auto;html=1;" edge="1" parent="1" source="UNgqLyzk2mrtrdei0tpV-8" target="UNgqLyzk2mrtrdei0tpV-16">
          <mxGeometry relative="1" as="geometry" />
        </mxCell>
        <mxCell id="UNgqLyzk2mrtrdei0tpV-8" value="计划分片" style="rounded=1;whiteSpace=wrap;html=1;fillColor=#d5e8d4;fontFamily=阿里巴巴普惠体;fontSize=24;strokeColor=#82b366;" vertex="1" parent="1">
          <mxGeometry x="670" y="275" width="120" height="50" as="geometry" />
        </mxCell>
        <mxCell id="UNgqLyzk2mrtrdei0tpV-9" value="&lt;font style=&quot;font-size: 24px;&quot; face=&quot;阿里巴巴普惠体&quot;&gt;FE&lt;/font&gt;" style="text;html=1;align=center;verticalAlign=middle;whiteSpace=wrap;rounded=0;" vertex="1" parent="1">
          <mxGeometry x="354.5" y="185.5" width="231" height="30" as="geometry" />
        </mxCell>
        <mxCell id="UNgqLyzk2mrtrdei0tpV-27" value="" style="edgeStyle=orthogonalEdgeStyle;rounded=0;orthogonalLoop=1;jettySize=auto;html=1;" edge="1" parent="1" source="UNgqLyzk2mrtrdei0tpV-11" target="UNgqLyzk2mrtrdei0tpV-21">
          <mxGeometry relative="1" as="geometry">
            <Array as="points">
              <mxPoint x="50" y="300" />
              <mxPoint x="50" y="300" />
            </Array>
          </mxGeometry>
        </mxCell>
        <mxCell id="UNgqLyzk2mrtrdei0tpV-11" value="&lt;font face=&quot;阿里巴巴普惠体&quot;&gt;&lt;span style=&quot;font-size: 24px;&quot;&gt;SQL 语句&lt;/span&gt;&lt;/font&gt;" style="rounded=1;whiteSpace=wrap;html=1;fillColor=none;align=left;" vertex="1" parent="1">
          <mxGeometry x="-100" y="270" width="110" height="55" as="geometry" />
        </mxCell>
        <mxCell id="UNgqLyzk2mrtrdei0tpV-13" value="&lt;font style=&quot;font-size: 20px;&quot; face=&quot;阿里巴巴普惠体&quot;&gt;查询计划的生成过程&lt;/font&gt;" style="text;html=1;align=center;verticalAlign=middle;whiteSpace=wrap;rounded=0;" vertex="1" parent="1">
          <mxGeometry x="400" y="390" width="280" height="30" as="geometry" />
        </mxCell>
        <mxCell id="UNgqLyzk2mrtrdei0tpV-16" value="执行器" style="rounded=1;whiteSpace=wrap;html=1;fillColor=none;fontFamily=阿里巴巴普惠体;fontSize=24;" vertex="1" parent="1">
          <mxGeometry x="955" y="270" width="110" height="60" as="geometry" />
        </mxCell>
        <mxCell id="UNgqLyzk2mrtrdei0tpV-17" value="&lt;font style=&quot;font-size: 24px;&quot; face=&quot;阿里巴巴普惠体&quot;&gt;BE&lt;/font&gt;" style="text;html=1;align=center;verticalAlign=middle;whiteSpace=wrap;rounded=0;" vertex="1" parent="1">
          <mxGeometry x="925" y="190" width="170" height="30" as="geometry" />
        </mxCell>
        <mxCell id="UNgqLyzk2mrtrdei0tpV-23" value="" style="edgeStyle=orthogonalEdgeStyle;rounded=0;orthogonalLoop=1;jettySize=auto;html=1;" edge="1" parent="1" source="UNgqLyzk2mrtrdei0tpV-21" target="UNgqLyzk2mrtrdei0tpV-4">
          <mxGeometry relative="1" as="geometry">
            <Array as="points">
              <mxPoint x="210" y="300" />
              <mxPoint x="210" y="300" />
            </Array>
          </mxGeometry>
        </mxCell>
        <mxCell id="UNgqLyzk2mrtrdei0tpV-21" value="&lt;font face=&quot;阿里巴巴普惠体&quot;&gt;&lt;span style=&quot;font-size: 24px;&quot;&gt;解析器&lt;/span&gt;&lt;/font&gt;" style="rounded=1;whiteSpace=wrap;html=1;fillColor=none;align=center;" vertex="1" parent="1">
          <mxGeometry x="100" y="270" width="100" height="55" as="geometry" />
        </mxCell>
        <mxCell id="q2s5SrwICU1VnTQCqI9m-2" value="&lt;font style=&quot;font-size: 24px;&quot;&gt;查询优化器&lt;/font&gt;" style="text;html=1;align=center;verticalAlign=middle;whiteSpace=wrap;rounded=0;" vertex="1" parent="1">
          <mxGeometry x="490" y="230" width="140" height="30" as="geometry" />
        </mxCell>
        <mxCell id="q2s5SrwICU1VnTQCqI9m-3" value="&lt;font style=&quot;font-size: 18px;&quot;&gt;stmts&lt;/font&gt;" style="text;html=1;align=center;verticalAlign=middle;whiteSpace=wrap;rounded=0;" vertex="1" parent="1">
          <mxGeometry x="170" y="270" width="140" height="30" as="geometry" />
        </mxCell>
        <mxCell id="q2s5SrwICU1VnTQCqI9m-4" style="edgeStyle=orthogonalEdgeStyle;rounded=0;orthogonalLoop=1;jettySize=auto;html=1;exitX=0.5;exitY=1;exitDx=0;exitDy=0;" edge="1" parent="1" source="q2s5SrwICU1VnTQCqI9m-3" target="q2s5SrwICU1VnTQCqI9m-3">
          <mxGeometry relative="1" as="geometry" />
        </mxCell>
        <mxCell id="eYN-DQEmPaUewtJaUyW4-1" value="&lt;font style=&quot;font-size: 18px;&quot;&gt;optimizer&lt;/font&gt;" style="text;html=1;align=center;verticalAlign=middle;whiteSpace=wrap;rounded=0;" vertex="1" parent="1">
          <mxGeometry x="381" y="260" width="140" height="30" as="geometry" />
        </mxCell>
      </root>
    </mxGraphModel>
  </diagram>
  <diagram id="2kukBNOOWZp16SmWJUf-" name="sr-select-2">
    <mxGraphModel dx="1434" dy="836" grid="1" gridSize="10" guides="1" tooltips="1" connect="1" arrows="1" fold="1" page="1" pageScale="1" pageWidth="827" pageHeight="1169" math="0" shadow="0">
      <root>
        <mxCell id="0" />
        <mxCell id="1" parent="0" />
        <mxCell id="uwU7vMVFGhaXeOI84t0g-1" value="&lt;div&gt;&lt;span style=&quot;font-size: 16px; text-align: left;&quot;&gt;StmtExecutor.java&lt;/span&gt;&lt;span style=&quot;font-size: 20px;&quot;&gt;&lt;b&gt;&lt;br&gt;&lt;/b&gt;&lt;/span&gt;&lt;/div&gt;&lt;span style=&quot;font-size: 20px;&quot;&gt;&lt;b&gt;handleDdlStmt&lt;/b&gt;&lt;/span&gt;" style="whiteSpace=wrap;html=1;rounded=1;fillColor=none;" vertex="1" parent="1">
          <mxGeometry x="575.5" y="289" width="170" height="60" as="geometry" />
        </mxCell>
        <mxCell id="uwU7vMVFGhaXeOI84t0g-9" value="" style="edgeStyle=orthogonalEdgeStyle;rounded=0;orthogonalLoop=1;jettySize=auto;html=1;exitX=0.5;exitY=1;exitDx=0;exitDy=0;entryX=0.465;entryY=0;entryDx=0;entryDy=0;entryPerimeter=0;" edge="1" parent="1">
          <mxGeometry relative="1" as="geometry">
            <Array as="points">
              <mxPoint x="429.95" y="250" />
              <mxPoint x="238.95" y="250" />
            </Array>
            <mxPoint x="429.95" y="214" as="sourcePoint" />
            <mxPoint x="238.99999999999994" y="289" as="targetPoint" />
          </mxGeometry>
        </mxCell>
        <mxCell id="uwU7vMVFGhaXeOI84t0g-10" value="" style="edgeStyle=orthogonalEdgeStyle;rounded=0;orthogonalLoop=1;jettySize=auto;html=1;exitX=0.5;exitY=1;exitDx=0;exitDy=0;" edge="1" parent="1" source="uwU7vMVFGhaXeOI84t0g-11">
          <mxGeometry relative="1" as="geometry">
            <mxPoint x="386" y="214" as="sourcePoint" />
            <mxPoint x="661" y="290" as="targetPoint" />
            <Array as="points">
              <mxPoint x="430" y="214" />
              <mxPoint x="430" y="250" />
              <mxPoint x="661" y="250" />
            </Array>
          </mxGeometry>
        </mxCell>
        <mxCell id="uwU7vMVFGhaXeOI84t0g-11" value="&lt;div&gt;&lt;font style=&quot;font-size: 20px;&quot;&gt;&lt;span style=&quot;font-size: 16px; text-align: left;&quot;&gt;StmtExecutor.java&lt;/span&gt;&lt;b&gt;&lt;br&gt;&lt;/b&gt;&lt;/font&gt;&lt;/div&gt;&lt;font style=&quot;font-size: 20px;&quot;&gt;&lt;b&gt;executor.execute()&lt;/b&gt;&lt;/font&gt;" style="whiteSpace=wrap;html=1;rounded=1;fillColor=none;" vertex="1" parent="1">
          <mxGeometry x="328" y="154" width="200" height="60" as="geometry" />
        </mxCell>
        <mxCell id="jHsMRX3hWR23RiZM99Ky-5" value="" style="edgeStyle=orthogonalEdgeStyle;rounded=0;orthogonalLoop=1;jettySize=auto;html=1;entryX=0.405;entryY=-0.071;entryDx=0;entryDy=0;entryPerimeter=0;" edge="1" parent="1" source="uwU7vMVFGhaXeOI84t0g-14" target="jHsMRX3hWR23RiZM99Ky-4">
          <mxGeometry relative="1" as="geometry">
            <mxPoint x="200" y="370" as="targetPoint" />
            <Array as="points">
              <mxPoint x="237" y="380" />
              <mxPoint x="130" y="380" />
            </Array>
          </mxGeometry>
        </mxCell>
        <mxCell id="HdG2dp41o8D68gwFHXf_-4" style="edgeStyle=orthogonalEdgeStyle;rounded=0;orthogonalLoop=1;jettySize=auto;html=1;entryX=0.502;entryY=-0.107;entryDx=0;entryDy=0;entryPerimeter=0;" edge="1" parent="1" source="uwU7vMVFGhaXeOI84t0g-14" target="jHsMRX3hWR23RiZM99Ky-6">
          <mxGeometry relative="1" as="geometry">
            <mxPoint x="386" y="420" as="targetPoint" />
            <Array as="points">
              <mxPoint x="237" y="380" />
              <mxPoint x="386" y="380" />
            </Array>
          </mxGeometry>
        </mxCell>
        <mxCell id="uwU7vMVFGhaXeOI84t0g-14" value="&lt;div&gt;&lt;font style=&quot;font-size: 20px;&quot;&gt;&lt;span style=&quot;font-size: 16px;&quot;&gt;StatementPlanner.java&lt;/span&gt;&lt;b&gt;&lt;br&gt;&lt;/b&gt;&lt;/font&gt;&lt;/div&gt;&lt;font style=&quot;font-size: 20px;&quot;&gt;&lt;b&gt;plan&lt;/b&gt;&lt;/font&gt;" style="whiteSpace=wrap;html=1;rounded=1;fillColor=none;" vertex="1" parent="1">
          <mxGeometry x="158" y="289" width="170" height="56" as="geometry" />
        </mxCell>
        <mxCell id="uwU7vMVFGhaXeOI84t0g-19" value="&lt;div&gt;&lt;font style=&quot;font-size: 20px;&quot;&gt;&lt;span style=&quot;color: rgb(255, 0, 0); font-size: 16px;&quot;&gt;SelectAnalyzer.java&lt;/span&gt;&lt;b&gt;&lt;br&gt;&lt;/b&gt;&lt;/font&gt;&lt;/div&gt;&lt;font style=&quot;font-size: 20px;&quot;&gt;&lt;b&gt;analyze&lt;/b&gt;&lt;/font&gt;" style="whiteSpace=wrap;html=1;rounded=1;fillColor=none;" vertex="1" parent="1">
          <mxGeometry x="71.13" y="640" width="150.25" height="55" as="geometry" />
        </mxCell>
        <mxCell id="uwU7vMVFGhaXeOI84t0g-24" value="&lt;div style=&quot;&quot; class=&quot;lake-content&quot;&gt;&lt;h3 style=&quot;line-height: 28px; margin: 16px 0px 5px;&quot; data-lake-index-type=&quot;2&quot; id=&quot;pqNoD&quot;&gt;&lt;font size=&quot;1&quot;&gt;&lt;/font&gt;&lt;div class=&quot;lake-content&quot;&gt;&lt;span class=&quot;ne-text&quot;&gt;&lt;font style=&quot;font-size: 20px;&quot;&gt;&lt;span style=&quot;font-size: 16px; font-weight: 400;&quot;&gt;DefaultCoordinator.java&lt;/span&gt;&lt;/font&gt;&lt;/span&gt;&lt;/div&gt;&lt;div class=&quot;lake-content&quot;&gt;&lt;span style=&quot;font-size: 20px; background-color: initial;&quot;&gt;startScheduling&lt;/span&gt;&lt;/div&gt;&lt;/h3&gt;&lt;/div&gt;" style="whiteSpace=wrap;html=1;rounded=1;fillColor=none;" vertex="1" parent="1">
          <mxGeometry x="560" y="389" width="210" height="60" as="geometry" />
        </mxCell>
        <mxCell id="uwU7vMVFGhaXeOI84t0g-28" value="&lt;font style=&quot;font-size: 30px;&quot;&gt;SR-&lt;/font&gt;&lt;span style=&quot;font-size: 30px; background-color: initial;&quot;&gt;select&lt;/span&gt;" style="rounded=1;whiteSpace=wrap;html=1;fillColor=#f8cecc;strokeColor=#b85450;" vertex="1" parent="1">
          <mxGeometry x="3" y="104" width="140" height="50" as="geometry" />
        </mxCell>
        <mxCell id="uwU7vMVFGhaXeOI84t0g-30" value="&lt;font style=&quot;font-size: 16px;&quot;&gt;ExecPlan&lt;/font&gt;" style="text;html=1;align=left;verticalAlign=middle;whiteSpace=wrap;rounded=0;fontSize=12;" vertex="1" parent="1">
          <mxGeometry x="586" y="254" width="95" height="30" as="geometry" />
        </mxCell>
        <mxCell id="uwU7vMVFGhaXeOI84t0g-33" value="&lt;div class=&quot;lake-content&quot;&gt;&lt;font size=&quot;1&quot;&gt;&lt;b&gt;&lt;/b&gt;&lt;/font&gt;&lt;div class=&quot;lake-content&quot;&gt;&lt;span class=&quot;ne-text&quot;&gt;&lt;font style=&quot;font-size: 20px;&quot;&gt;&lt;span style=&quot;font-size: 16px; background-color: initial;&quot;&gt;QueryAnalyzer&lt;/span&gt;&lt;span style=&quot;font-size: 16px;&quot;&gt;.java&lt;/span&gt;&lt;b&gt;&lt;br&gt;&lt;/b&gt;&lt;/font&gt;&lt;/span&gt;&lt;/div&gt;&lt;div class=&quot;lake-content&quot;&gt;&lt;span class=&quot;ne-text&quot;&gt;&lt;font style=&quot;font-size: 20px;&quot;&gt;&lt;b&gt;visitSelect&lt;/b&gt;&lt;/font&gt;&lt;/span&gt;&lt;/div&gt;&lt;/div&gt;" style="whiteSpace=wrap;html=1;rounded=1;fillColor=none;" vertex="1" parent="1">
          <mxGeometry x="71.38" y="533" width="150" height="59" as="geometry" />
        </mxCell>
        <mxCell id="uwU7vMVFGhaXeOI84t0g-42" value="&lt;font style=&quot;font-size: 16px;&quot;&gt;stmts&lt;/font&gt;" style="text;html=1;align=left;verticalAlign=middle;whiteSpace=wrap;rounded=0;fontSize=12;" vertex="1" parent="1">
          <mxGeometry x="243.88" y="254" width="56.12" height="30" as="geometry" />
        </mxCell>
        <mxCell id="uwU7vMVFGhaXeOI84t0g-46" value="" style="endArrow=classic;html=1;rounded=0;entryX=0.464;entryY=0.1;entryDx=0;entryDy=0;entryPerimeter=0;" edge="1" parent="1">
          <mxGeometry width="50" height="50" relative="1" as="geometry">
            <mxPoint x="661" y="350" as="sourcePoint" />
            <mxPoint x="661.0038400000001" y="390" as="targetPoint" />
          </mxGeometry>
        </mxCell>
        <mxCell id="uwU7vMVFGhaXeOI84t0g-53" value="" style="endArrow=classic;html=1;rounded=0;exitX=0.457;exitY=1.034;exitDx=0;exitDy=0;exitPerimeter=0;" edge="1" parent="1" source="uwU7vMVFGhaXeOI84t0g-33">
          <mxGeometry width="50" height="50" relative="1" as="geometry">
            <mxPoint x="139.3800000000001" y="593" as="sourcePoint" />
            <mxPoint x="140" y="640" as="targetPoint" />
            <Array as="points">
              <mxPoint x="140" y="600" />
              <mxPoint x="140" y="620" />
            </Array>
          </mxGeometry>
        </mxCell>
        <mxCell id="uwU7vMVFGhaXeOI84t0g-56" value="将查询计划分发给 BE 节点" style="text;html=1;align=left;verticalAlign=middle;whiteSpace=wrap;rounded=0;fontSize=12;" vertex="1" parent="1">
          <mxGeometry x="580" y="353" width="75" height="30" as="geometry" />
        </mxCell>
        <mxCell id="uwU7vMVFGhaXeOI84t0g-57" value="分析 select 每个子句属性" style="text;html=1;align=left;verticalAlign=middle;whiteSpace=wrap;rounded=0;fontSize=12;" vertex="1" parent="1">
          <mxGeometry x="146.38" y="600" width="75" height="30" as="geometry" />
        </mxCell>
        <mxCell id="jHsMRX3hWR23RiZM99Ky-4" value="&lt;div&gt;&lt;font style=&quot;font-size: 20px;&quot;&gt;&lt;span style=&quot;font-size: 16px;&quot;&gt;StatementPlanner.java&lt;/span&gt;&lt;b&gt;&lt;br&gt;&lt;/b&gt;&lt;/font&gt;&lt;/div&gt;&lt;span style=&quot;font-size: 20px;&quot;&gt;&lt;b&gt;analyzeStatement&lt;/b&gt;&lt;/span&gt;" style="whiteSpace=wrap;html=1;rounded=1;fillColor=none;" vertex="1" parent="1">
          <mxGeometry x="59.75" y="430" width="173.25" height="56" as="geometry" />
        </mxCell>
        <mxCell id="jHsMRX3hWR23RiZM99Ky-6" value="&lt;div&gt;&lt;font style=&quot;font-size: 20px;&quot;&gt;&lt;span style=&quot;font-size: 16px;&quot;&gt;StatementPlanner.java&lt;/span&gt;&lt;b&gt;&lt;br&gt;&lt;/b&gt;&lt;/font&gt;&lt;/div&gt;&lt;span style=&quot;font-size: 20px;&quot;&gt;&lt;b&gt;createQueryPlanWithReTry&lt;/b&gt;&lt;/span&gt;" style="whiteSpace=wrap;html=1;rounded=1;fillColor=none;" vertex="1" parent="1">
          <mxGeometry x="252.88" y="430" width="265.25" height="56" as="geometry" />
        </mxCell>
        <mxCell id="jHsMRX3hWR23RiZM99Ky-8" value="依次分析select 中的每个子句是否合法" style="text;html=1;align=left;verticalAlign=middle;whiteSpace=wrap;rounded=0;" vertex="1" parent="1">
          <mxGeometry x="130" y="389" width="110" height="30" as="geometry" />
        </mxCell>
        <mxCell id="HdG2dp41o8D68gwFHXf_-3" style="edgeStyle=orthogonalEdgeStyle;rounded=0;orthogonalLoop=1;jettySize=auto;html=1;" edge="1" parent="1">
          <mxGeometry relative="1" as="geometry">
            <mxPoint x="147" y="486" as="sourcePoint" />
            <mxPoint x="147" y="533" as="targetPoint" />
            <Array as="points">
              <mxPoint x="147" y="520" />
              <mxPoint x="147" y="520" />
            </Array>
          </mxGeometry>
        </mxCell>
        <mxCell id="HdG2dp41o8D68gwFHXf_-8" value="&lt;font style=&quot;font-size: 12px;&quot;&gt;构建查询计划：逻辑计划和物理计划&lt;/font&gt;" style="text;html=1;align=left;verticalAlign=middle;whiteSpace=wrap;rounded=0;" vertex="1" parent="1">
          <mxGeometry x="270" y="389" width="110" height="30" as="geometry" />
        </mxCell>
      </root>
    </mxGraphModel>
  </diagram>
</mxfile>
